<?xml version="1.0" standalone="no"?>
<!DOCTYPE svg PUBLIC "-//W3C//DTD SVG 20010904//EN"
 "http://www.w3.org/TR/2001/REC-SVG-20010904/DTD/svg10.dtd">
<svg version="1.0" xmlns="http://www.w3.org/2000/svg"
 width="256.000000pt" height="143.000000pt" viewBox="0 0 256.000000 143.000000"
 preserveAspectRatio="xMidYMid meet">
<metadata>
Created by potrace 1.16, written by Peter Selinger 2001-2019
</metadata>
<g transform="translate(0.000000,143.000000) scale(0.100000,-0.100000)"
fill="#000000" stroke="none">
<path d="M2267 1423 c-17 -16 -3 -34 47 -62 29 -17 61 -31 70 -31 9 0 29 -6
44 -14 15 -7 51 -16 80 -19 l52 -6 0 69 0 70 -143 0 c-79 0 -147 -3 -150 -7z"/>
<path d="M2030 1159 c-31 -13 -75 -54 -101 -96 -46 -73 -125 -90 -179 -38 -44
43 -85 32 -200 -50 -102 -74 -139 -111 -140 -137 0 -28 -19 -21 -26 9 -5 18
-2 30 10 38 10 8 16 27 16 54 0 23 5 50 12 61 7 10 10 21 8 22 -3 2 -22 18
-43 36 -53 45 -137 68 -191 52 -49 -14 -81 -42 -108 -93 -17 -35 -22 -38 -46
-31 -15 4 -38 8 -52 7 -40 0 -158 -61 -207 -106 -23 -22 -43 -36 -43 -32 0 4
-18 -10 -40 -31 -27 -26 -38 -45 -34 -56 4 -12 -4 -23 -26 -36 -27 -17 -29
-21 -15 -32 19 -16 19 -25 -1 -44 -8 -9 -11 -17 -5 -17 6 -1 16 -2 21 -3 6 0
10 -4 10 -8 0 -5 0 -14 0 -22 0 -10 -21 -15 -82 -18 -74 -4 -85 -3 -117 19
-24 17 -44 23 -62 19 -14 -3 -31 0 -37 6 -16 16 -59 1 -65 -22 -4 -16 4 -27
36 -48 39 -26 46 -27 151 -25 69 1 104 -2 95 -8 -8 -5 -52 -9 -99 -9 -98 0
-163 -24 -217 -81 -57 -60 -80 -177 -52 -258 6 -18 9 -34 7 -36 -2 -3 -50 -8
-106 -11 l-102 -7 0 -64 c0 -34 3 -63 6 -63 3 0 12 7 20 15 20 19 32 19 36 -1
2 -13 6 -12 25 5 15 14 24 17 29 10 3 -6 0 -15 -7 -20 -8 -5 276 -9 679 -9
650 1 693 2 688 18 -18 62 -37 220 -31 263 6 44 13 55 67 103 l60 53 97 8
c137 12 198 11 263 -4 l57 -12 -11 -30 c-5 -16 -14 -29 -18 -29 -5 0 -11 -8
-14 -18 -4 -10 -26 -31 -51 -46 -39 -25 -45 -34 -45 -63 0 -23 8 -40 24 -54
14 -12 30 -35 37 -53 23 -55 61 -96 92 -96 31 0 30 -5 32 130 2 119 -4 109
146 285 20 24 46 58 57 77 36 58 153 77 201 34 17 -16 19 -14 25 30 10 75 6
134 -13 213 l-17 74 -28 -57 c-15 -31 -31 -56 -36 -56 -13 0 -5 62 13 97 10
18 17 41 17 53 0 12 5 18 10 15 6 -3 10 1 10 9 0 8 15 26 32 40 l32 25 -24 10
c-19 7 -21 10 -7 10 11 1 17 7 14 14 -2 6 -15 11 -28 10 -23 -3 -23 -2 -5 12
21 16 46 5 46 -21 0 -26 19 -23 49 7 23 22 31 40 31 65 0 35 -7 39 -52 35 -10
-1 -18 3 -18 8 0 6 -5 11 -11 11 -7 0 -9 -10 -5 -25 5 -20 2 -26 -19 -31 -15
-4 -32 -1 -40 6 -21 17 -65 -2 -65 -29 0 -12 -9 -20 -24 -23 -18 -4 -23 -1
-19 9 4 11 1 12 -19 2 -21 -9 -24 -17 -23 -57 1 -26 -2 -55 -7 -64 -4 -10 -12
-27 -18 -38 -6 -12 -6 -21 0 -25 13 -8 2 -26 -13 -24 -7 1 -19 0 -27 -4 -38
-14 -96 -14 -109 1 -13 13 -11 18 10 36 23 19 41 49 92 149 21 40 17 87 -7 87
-8 0 -27 7 -42 15 -33 17 -77 18 -114 4z m-640 -219 c0 -12 -7 -20 -16 -20 -9
0 -22 -8 -29 -17 -13 -18 -1 -53 43 -123 59 -94 -15 -209 -127 -198 l-36 3 -2
-110 c-1 -65 -7 -111 -13 -113 -5 -2 -10 -10 -10 -17 0 -55 -50 16 -70 100
-23 93 -52 191 -61 200 -5 5 -9 -7 -9 -32 0 -23 -4 -45 -10 -48 -5 -3 -10 -29
-10 -56 0 -46 -3 -51 -31 -67 -18 -9 -41 -27 -52 -39 -13 -15 -32 -23 -51 -23
-55 0 -74 11 -90 48 -8 21 -25 54 -37 74 -27 44 -17 64 37 74 24 4 39 16 53
40 12 19 29 37 38 40 43 14 68 31 82 56 20 35 54 48 114 45 37 -2 48 2 53 15
8 27 61 67 98 73 25 5 33 11 30 23 -7 28 19 64 56 77 49 18 50 17 50 -5z
m-718 -520 c15 -18 18 -32 13 -60 -4 -19 -10 -39 -15 -44 -9 -9 -192 122 -186
133 2 3 41 4 86 1 72 -4 84 -8 102 -30z m490 -170 c13 -19 35 -41 50 -49 24
-14 30 -13 80 14 29 15 67 37 83 49 22 15 27 16 16 3 -10 -13 -11 -24 -2 -47
8 -23 7 -32 -2 -35 -24 -8 -538 -26 -557 -20 -26 8 -25 21 0 35 12 6 25 22 30
35 7 17 19 26 47 30 21 4 49 10 63 15 14 4 57 7 97 6 70 -1 72 -2 95 -36z"/>
<path d="M1243 818 c-17 -4 -41 -20 -52 -34 -21 -26 -28 -55 -13 -53 29 5 47
-28 54 -101 3 -21 9 -25 40 -28 46 -4 74 10 98 51 24 38 25 78 5 116 -14 28
-45 49 -45 31 0 -18 -40 -10 -48 8 -6 15 -13 17 -39 10z"/>
</g>
</svg>
